# xmcd
#
# Track frame offsets:
#	150
#	14736
#	30338
#	44003
#	55148
#	66199
#	79070
#	97729
#	108933
#	119561
#	131776
#	143977
#
# Disc length: 2100 seconds
#
# Revision: 4
# Processed by: cddbd v1.5.2PL0 Copyright (c) Steve Scherf et al.
# Submitted via: EasyCDDAExtractor 12.0.1.1
#
DISCID=a608320c
DTITLE=Merle Haggard - Roots Vol. 1
DYEAR=2001
DGENRE=Country
TTITLE0=Always Late (With Your Kisses)
TTITLE1=More Than My Old Guitar
TTITLE2=If You've Got The Money (I've Got The Time)
TTITLE3=Look What Thoughts Will Do
TTITLE4=My Baby's Just Like Money
TTITLE5=Honkey Tonkin'
TTITLE6=Runaway Mama
TTITLE7=I'll Sign My Heart Away
TTITLE8=I've Got A Tender Heart
TTITLE9=The Wild Side Of Life
TTITLE10=Take These Chains From My Heart
TTITLE11=I Want To Be With You Always
EXTD=YEAR: 2001
EXTT0=
EXTT1=
EXTT2=
EXTT3=
EXTT4=
EXTT5=
EXTT6=
EXTT7=
EXTT8=
EXTT9=
EXTT10=
EXTT11=
PLAYORDER=
